<svg xmlns="http://www.w3.org/2000/svg" width="20" height="15" viewBox="0 0 20 15"><defs><style>.a{fill:#fff;}</style></defs><path class="a" d="M7.188,64.762l6.426,6.406a.469.469,0,0,1,0,.664L7.188,78.238a.469.469,0,0,1-.664,0l-.277-.277a.469.469,0,0,1,0-.664L11.4,72.164H.469A.47.47,0,0,1,0,71.7V71.3a.47.47,0,0,1,.469-.469H11.4L6.25,65.7a.469.469,0,0,1,0-.664l.277-.277A.464.464,0,0,1,7.188,64.762ZM20,77.125V65.875A1.875,1.875,0,0,0,18.125,64H12.969a.47.47,0,0,0-.469.469v.313a.47.47,0,0,0,.469.469h5.156a.627.627,0,0,1,.625.625v11.25a.627.627,0,0,1-.625.625H12.969a.47.47,0,0,0-.469.469v.312a.47.47,0,0,0,.469.469h5.156A1.875,1.875,0,0,0,20,77.125Z" transform="translate(0 -64)"/></svg>